<mxfile host="Electron" modified="2024-01-14T22:17:18.894Z" agent="Mozilla/5.0 (X11; Linux x86_64) AppleWebKit/537.36 (KHTML, like Gecko) draw.io/21.2.8 Chrome/112.0.5615.165 Electron/24.2.0 Safari/537.36" etag="rryRycWMph-S9_9Lj6wb" version="21.2.8" type="device">
  <diagram name="Seite-1" id="QAbAI5rMIwtQ6K1eXTz9">
    <mxGraphModel dx="1434" dy="2159" grid="1" gridSize="10" guides="1" tooltips="1" connect="1" arrows="1" fold="1" page="1" pageScale="1" pageWidth="827" pageHeight="1169" math="0" shadow="0">
      <root>
        <mxCell id="0" />
        <mxCell id="1" parent="0" />
        <mxCell id="bmq9btDstb2rBGlfxvXh-1" value="" style="group" vertex="1" connectable="0" parent="1">
          <mxGeometry x="306" y="-80" width="523" height="160" as="geometry" />
        </mxCell>
        <mxCell id="4_vxQsadACFQhMmcrZ8h-2" value="" style="rounded=0;whiteSpace=wrap;html=1;strokeWidth=2;" parent="bmq9btDstb2rBGlfxvXh-1" vertex="1">
          <mxGeometry width="430" height="90" as="geometry" />
        </mxCell>
        <mxCell id="4_vxQsadACFQhMmcrZ8h-3" value="&lt;b&gt;&lt;font style=&quot;font-size: 14px;&quot;&gt;Package&lt;/font&gt;&lt;/b&gt;" style="rounded=0;whiteSpace=wrap;html=1;strokeWidth=2;" parent="bmq9btDstb2rBGlfxvXh-1" vertex="1">
          <mxGeometry width="103" height="30" as="geometry" />
        </mxCell>
        <mxCell id="c9HfcHfPdhRfk0jndsiD-1" value="&lt;div style=&#39;width: 385.8px;height:auto;word-break: break-word;&#39;&gt;&lt;div align=&quot;left&quot;&gt;&lt;span style=&quot;font-size:12px;font-weight:bold;font-family:Arial;text-decoration:none; line-height: normal;&quot;&gt;ENV&lt;/span&gt;&lt;/div&gt;&lt;/div&gt;" style="shape=rect;shadow=0;strokeWidth=2;fillColor=#FFFFFF;strokeColor=#333333;opacity=100.0;html=1;nl2Br=0;verticalAlign=top;align=left;spacingLeft=14.1;spacingRight=6;spacingTop=1.0;spacingBottom=8;whiteSpace=wrap;gliffyId=56;" parent="1" vertex="1">
          <mxGeometry x="321.5" y="87.5" width="405" height="70" as="geometry" />
        </mxCell>
        <mxCell id="c9HfcHfPdhRfk0jndsiD-2" style="shape=rect;shadow=0;strokeWidth=2;fillColor=#FFFFFF;strokeColor=#333333;opacity=100.0;gliffyId=0;" parent="1" vertex="1">
          <mxGeometry x="51.5" y="252.5" width="110" height="360" as="geometry" />
        </mxCell>
        <mxCell id="c9HfcHfPdhRfk0jndsiD-3" style="shape=rect;shadow=0;strokeWidth=2;fillColor=#FFFFFF;strokeColor=#333333;opacity=100.0;gliffyId=2;" parent="1" vertex="1">
          <mxGeometry x="226.5" y="252.5" width="500" height="360" as="geometry" />
        </mxCell>
        <mxCell id="c9HfcHfPdhRfk0jndsiD-4" style="shape=filledEdge;strokeWidth=2;strokeColor=#000000;fillColor=none;startArrow=none;startFill=0;startSize=6;endArrow=block;endFill=1;endSize=6;rounded=1;html=1;nl2Br=0;gliffyId=9;edgeStyle=orthogonalEdgeStyle;" parent="1" source="c9HfcHfPdhRfk0jndsiD-13" target="c9HfcHfPdhRfk0jndsiD-10" edge="1">
          <mxGeometry width="100" height="100" relative="1" as="geometry">
            <Array as="points">
              <mxPoint x="141.5" y="463.03289794921875" />
              <mxPoint x="201.5" y="463.03289794921875" />
              <mxPoint x="201.5" y="417.5" />
              <mxPoint x="261.5" y="417.5" />
            </Array>
          </mxGeometry>
        </mxCell>
        <mxCell id="c9HfcHfPdhRfk0jndsiD-5" value="&lt;div style=&#39;width: 35.0px;height:auto;word-break: break-word;&#39;&gt;&lt;div align=&quot;center&quot;&gt;&lt;span style=&quot;font-size:12px;font-weight:bold;font-family:Arial; line-height: 0;&quot;&gt;&lt;span style=&quot; line-height: normal;&quot;&gt;AST&lt;/span&gt;&lt;/span&gt;&lt;/div&gt;&lt;/div&gt;" style="text;html=1;nl2Br=0;points=[];labelBackgroundColor=#FFFFFF;html=1;nl2Br=0;verticalAlign=middle;align=center;spacingLeft=0.0;spacingRight=0;gliffyId=98;" parent="c9HfcHfPdhRfk0jndsiD-4" vertex="1">
          <mxGeometry x="-0.02272986685128997" relative="1" as="geometry">
            <mxPoint as="offset" />
          </mxGeometry>
        </mxCell>
        <mxCell id="c9HfcHfPdhRfk0jndsiD-6" style="shape=rect;shadow=0;strokeWidth=2;fillColor=#FFFFFF;strokeColor=#333333;opacity=100.0;gliffyId=13;" parent="1" vertex="1">
          <mxGeometry x="781.5" y="252.5" width="110" height="360" as="geometry" />
        </mxCell>
        <mxCell id="c9HfcHfPdhRfk0jndsiD-7" style="shape=filledEdge;strokeWidth=2;strokeColor=#000000;fillColor=none;startArrow=none;startFill=0;startSize=6;endArrow=block;endFill=1;endSize=6;rounded=1;dashed=1;fixDash=1;dashPattern=16.0 16.0;gliffyId=15;edgeStyle=orthogonalEdgeStyle;" parent="1" source="c9HfcHfPdhRfk0jndsiD-6" target="c9HfcHfPdhRfk0jndsiD-2" edge="1">
          <mxGeometry width="100" height="100" relative="1" as="geometry">
            <Array as="points">
              <mxPoint x="836.5" y="612.5" />
              <mxPoint x="836.5" y="708.5" />
              <mxPoint x="106.5" y="708.5" />
              <mxPoint x="106.5" y="612.5" />
            </Array>
          </mxGeometry>
        </mxCell>
        <mxCell id="c9HfcHfPdhRfk0jndsiD-8" style="shape=filledEdge;strokeWidth=2;strokeColor=#000000;fillColor=none;startArrow=none;startFill=0;startSize=6;endArrow=block;endFill=1;endSize=6;rounded=1;html=1;nl2Br=0;gliffyId=17;edgeStyle=orthogonalEdgeStyle;" parent="1" source="c9HfcHfPdhRfk0jndsiD-11" target="c9HfcHfPdhRfk0jndsiD-21" edge="1">
          <mxGeometry width="100" height="100" relative="1" as="geometry">
            <Array as="points">
              <mxPoint x="701.5" y="417.5" />
              <mxPoint x="751.5" y="417.5" />
              <mxPoint x="751.5" y="455" />
              <mxPoint x="801.5" y="455" />
            </Array>
          </mxGeometry>
        </mxCell>
        <mxCell id="c9HfcHfPdhRfk0jndsiD-9" value="&lt;div style=&#39;width: 35.0px;height:auto;word-break: break-word;&#39;&gt;&lt;div align=&quot;center&quot;&gt;&lt;span style=&quot;font-size:12px;font-weight:bold;font-family:Arial; line-height: 0;&quot;&gt;&lt;span style=&quot; line-height: normal;&quot;&gt;AST&lt;/span&gt;&lt;/span&gt;&lt;/div&gt;&lt;/div&gt;" style="text;html=1;nl2Br=0;points=[];labelBackgroundColor=#FFFFFF;html=1;nl2Br=0;verticalAlign=middle;align=center;spacingLeft=0.0;spacingRight=0;gliffyId=99;" parent="c9HfcHfPdhRfk0jndsiD-8" vertex="1">
          <mxGeometry x="-0.07526378938759026" relative="1" as="geometry">
            <mxPoint as="offset" />
          </mxGeometry>
        </mxCell>
        <mxCell id="c9HfcHfPdhRfk0jndsiD-10" value="&lt;div style=&#39;width: 113.0px;height:auto;word-break: break-word;&#39;&gt;&lt;div align=&quot;left&quot;&gt;&lt;span style=&quot;font-size:12px;font-weight:bold;font-family:Arial;text-decoration:none; line-height: 0;&quot;&gt;&lt;span style=&quot;text-decoration:none; line-height: normal;&quot;&gt;* symbol&lt;/span&gt;&lt;/span&gt;&lt;/div&gt;&lt;div align=&quot;left&quot;&gt;&lt;span style=&quot;font-size:12px;font-weight:bold;font-family:Arial;text-decoration:none; line-height: 0;&quot;&gt;&lt;span style=&quot;text-decoration:none; line-height: normal;&quot;&gt;* list&lt;/span&gt;&lt;/span&gt;&lt;/div&gt;&lt;div align=&quot;left&quot;&gt;&lt;span style=&quot;font-size:12px;font-weight:bold;font-family:Arial;text-decoration:none; line-height: 0;&quot;&gt;&lt;span style=&quot;text-decoration:none; line-height: normal;&quot;&gt;* vector&lt;/span&gt;&lt;/span&gt;&lt;/div&gt;&lt;div align=&quot;left&quot;&gt;&lt;span style=&quot;font-size:12px;font-weight:bold;font-family:Arial;text-decoration:none; line-height: 0;&quot;&gt;&lt;span style=&quot;text-decoration:none; line-height: normal;&quot;&gt;* hash-map&lt;/span&gt;&lt;/span&gt;&lt;/div&gt;&lt;/div&gt;" style="shape=rect;shadow=0;strokeWidth=2;fillColor=#FFFFFF;strokeColor=#333333;opacity=100.0;html=1;nl2Br=0;verticalAlign=middle;align=left;spacingLeft=8.0;spacingRight=6;whiteSpace=wrap;gliffyId=18;" parent="1" vertex="1">
          <mxGeometry x="261.5" y="302.5" width="120" height="230" as="geometry" />
        </mxCell>
        <mxCell id="c9HfcHfPdhRfk0jndsiD-11" style="shape=rect;shadow=0;strokeWidth=2;fillColor=#FFFFFF;strokeColor=#333333;opacity=100.0;gliffyId=20;" parent="1" vertex="1">
          <mxGeometry x="421.5" y="302.5" width="280" height="230" as="geometry" />
        </mxCell>
        <mxCell id="c9HfcHfPdhRfk0jndsiD-12" value="&lt;div style=&#39;width: 64.2px;height:auto;word-break: break-word;&#39;&gt;&lt;div align=&quot;center&quot;&gt;&lt;span style=&quot;font-size:12px;font-weight:bold;font-family:Arial;text-decoration:none; line-height: 0;&quot;&gt;&lt;span style=&quot;text-decoration:none; line-height: normal;&quot;&gt;readline&lt;/span&gt;&lt;/span&gt;&lt;/div&gt;&lt;/div&gt;" style="shape=rect;shadow=0;strokeWidth=2;fillColor=#FFFFFF;strokeColor=#333333;opacity=100.0;html=1;nl2Br=0;verticalAlign=middle;align=center;spacingLeft=7.4;spacingRight=6;whiteSpace=wrap;gliffyId=22;" parent="1" vertex="1">
          <mxGeometry x="71.5" y="302.5" width="70" height="40" as="geometry" />
        </mxCell>
        <mxCell id="c9HfcHfPdhRfk0jndsiD-13" value="&lt;div style=&#39;width: 64.2px;height:auto;word-break: break-word;&#39;&gt;&lt;div align=&quot;left&quot;&gt;&lt;span style=&quot;font-size:12px;font-weight:bold;font-family:Arial;text-decoration:none; line-height: 0;&quot;&gt;&lt;span style=&quot;text-decoration:none; line-height: normal;&quot;&gt;read_str&lt;/span&gt;&lt;/span&gt;&lt;/div&gt;&lt;/div&gt;" style="shape=rect;shadow=0;strokeWidth=2;fillColor=#FFFFFF;strokeColor=#333333;opacity=100.0;html=1;nl2Br=0;verticalAlign=top;align=left;spacingLeft=7.4;spacingRight=6;spacingTop=1.0;spacingBottom=8;whiteSpace=wrap;gliffyId=24;" parent="1" vertex="1">
          <mxGeometry x="71.5" y="392.5" width="70" height="177.5" as="geometry" />
        </mxCell>
        <mxCell id="c9HfcHfPdhRfk0jndsiD-14" style="shape=filledEdge;strokeWidth=2;strokeColor=#000000;fillColor=none;startArrow=none;startFill=0;startSize=6;endArrow=block;endFill=1;endSize=6;rounded=1;html=1;nl2Br=0;gliffyId=26;edgeStyle=orthogonalEdgeStyle;" parent="1" source="c9HfcHfPdhRfk0jndsiD-12" target="c9HfcHfPdhRfk0jndsiD-13" edge="1">
          <mxGeometry width="100" height="100" relative="1" as="geometry">
            <Array as="points">
              <mxPoint x="106.5" y="342.5" />
              <mxPoint x="106.5" y="359.1666564941406" />
              <mxPoint x="106.5" y="375.8333435058594" />
              <mxPoint x="106.5" y="392.5" />
            </Array>
          </mxGeometry>
        </mxCell>
        <mxCell id="c9HfcHfPdhRfk0jndsiD-15" value="&lt;div style=&#39;width: 44.0px;height:auto;word-break: break-word;&#39;&gt;&lt;div align=&quot;center&quot;&gt;&lt;span style=&quot;font-size:12px;font-weight:bold;font-family:Arial; line-height: 0;&quot;&gt;&lt;span style=&quot; line-height: normal;&quot;&gt;string&lt;/span&gt;&lt;/span&gt;&lt;/div&gt;&lt;/div&gt;" style="text;html=1;nl2Br=0;points=[];labelBackgroundColor=#FFFFFF;html=1;nl2Br=0;verticalAlign=middle;align=center;spacingLeft=0.0;spacingRight=0;gliffyId=184;" parent="c9HfcHfPdhRfk0jndsiD-14" vertex="1">
          <mxGeometry x="-0.11999999999999988" relative="1" as="geometry">
            <mxPoint as="offset" />
          </mxGeometry>
        </mxCell>
        <mxCell id="c9HfcHfPdhRfk0jndsiD-16" style="shape=filledEdge;strokeWidth=2;strokeColor=#000000;fillColor=none;startArrow=none;startFill=0;startSize=6;endArrow=block;endFill=1;endSize=6;rounded=1;html=1;nl2Br=0;gliffyId=27;edgeStyle=orthogonalEdgeStyle;" parent="1" target="c9HfcHfPdhRfk0jndsiD-12" edge="1">
          <mxGeometry width="100" height="100" relative="1" as="geometry">
            <mxPoint x="24.5" y="321.5" as="sourcePoint" />
            <Array as="points">
              <mxPoint x="40.17021179199219" y="321.5" />
              <mxPoint x="55.840423583984375" y="321.5" />
              <mxPoint x="71.51063537597656" y="321.5" />
            </Array>
          </mxGeometry>
        </mxCell>
        <mxCell id="c9HfcHfPdhRfk0jndsiD-17" value="&lt;div style=&#39;width: 22.0px;height:auto;word-break: break-word;&#39;&gt;&lt;div align=&quot;center&quot;&gt;&lt;span style=&quot;font-size:12px;font-weight:bold;font-family:Arial; line-height: 0;&quot;&gt;&lt;span style=&quot; line-height: normal;&quot;&gt;in&lt;/span&gt;&lt;/span&gt;&lt;/div&gt;&lt;/div&gt;" style="text;html=1;nl2Br=0;points=[];labelBackgroundColor=#FFFFFF;html=1;nl2Br=0;verticalAlign=middle;align=center;spacingLeft=0.0;spacingRight=0;gliffyId=100;" parent="c9HfcHfPdhRfk0jndsiD-16" vertex="1">
          <mxGeometry x="-0.5320208072073311" relative="1" as="geometry">
            <mxPoint as="offset" />
          </mxGeometry>
        </mxCell>
        <mxCell id="c9HfcHfPdhRfk0jndsiD-18" style="shape=filledEdge;strokeWidth=2;strokeColor=#000000;fillColor=none;startArrow=none;startFill=0;startSize=6;endArrow=block;endFill=1;endSize=6;rounded=1;html=1;nl2Br=0;gliffyId=29;edgeStyle=orthogonalEdgeStyle;" parent="1" source="c9HfcHfPdhRfk0jndsiD-20" edge="1">
          <mxGeometry width="100" height="100" relative="1" as="geometry">
            <mxPoint x="929.5" y="322.5" as="targetPoint" />
            <Array as="points">
              <mxPoint x="871.5" y="322.5" />
              <mxPoint x="890.8333129882812" y="322.5" />
              <mxPoint x="910.1666870117188" y="322.5" />
            </Array>
          </mxGeometry>
        </mxCell>
        <mxCell id="c9HfcHfPdhRfk0jndsiD-19" value="&lt;div style=&#39;width: 30.0px;height:auto;word-break: break-word;&#39;&gt;&lt;div align=&quot;center&quot;&gt;&lt;span style=&quot;font-size:12px;font-weight:bold;font-family:Arial; line-height: 0;&quot;&gt;&lt;span style=&quot; line-height: normal;&quot;&gt;out&lt;/span&gt;&lt;/span&gt;&lt;/div&gt;&lt;/div&gt;" style="text;html=1;nl2Br=0;points=[];labelBackgroundColor=#FFFFFF;html=1;nl2Br=0;verticalAlign=middle;align=center;spacingLeft=0.0;spacingRight=0;gliffyId=109;" parent="c9HfcHfPdhRfk0jndsiD-18" vertex="1">
          <mxGeometry x="0.1379310344827589" relative="1" as="geometry">
            <mxPoint as="offset" />
          </mxGeometry>
        </mxCell>
        <mxCell id="c9HfcHfPdhRfk0jndsiD-20" value="&lt;div style=&#39;width: 64.2px;height:auto;word-break: break-word;&#39;&gt;&lt;div align=&quot;center&quot;&gt;&lt;span style=&quot;font-size:12px;font-weight:bold;font-family:Arial;text-decoration:none; line-height: 0;&quot;&gt;&lt;span style=&quot;text-decoration:none; line-height: normal;&quot;&gt;printline&lt;/span&gt;&lt;/span&gt;&lt;/div&gt;&lt;/div&gt;" style="shape=rect;shadow=0;strokeWidth=2;fillColor=#FFFFFF;strokeColor=#333333;opacity=100.0;html=1;nl2Br=0;verticalAlign=middle;align=center;spacingLeft=7.4;spacingRight=6;whiteSpace=wrap;gliffyId=30;" parent="1" vertex="1">
          <mxGeometry x="801.5" y="302.5" width="70" height="40" as="geometry" />
        </mxCell>
        <mxCell id="c9HfcHfPdhRfk0jndsiD-21" value="&lt;div style=&#39;width: 64.2px;height:auto;word-break: break-word;&#39;&gt;&lt;div align=&quot;center&quot;&gt;&lt;span style=&quot;font-size:12px;font-weight:bold;font-family:Arial;text-decoration:none; line-height: 0;&quot;&gt;&lt;span style=&quot;text-decoration:none; line-height: normal;&quot;&gt;pr_str&lt;/span&gt;&lt;/span&gt;&lt;/div&gt;&lt;/div&gt;" style="shape=rect;shadow=0;strokeWidth=2;fillColor=#FFFFFF;strokeColor=#333333;opacity=100.0;html=1;nl2Br=0;verticalAlign=middle;align=center;spacingLeft=7.4;spacingRight=6;whiteSpace=wrap;gliffyId=32;" parent="1" vertex="1">
          <mxGeometry x="801.5" y="435" width="70" height="40" as="geometry" />
        </mxCell>
        <mxCell id="c9HfcHfPdhRfk0jndsiD-22" style="shape=filledEdge;strokeWidth=2;strokeColor=#000000;fillColor=none;startArrow=none;startFill=0;startSize=6;endArrow=block;endFill=1;endSize=6;rounded=1;html=1;nl2Br=0;gliffyId=34;edgeStyle=orthogonalEdgeStyle;" parent="1" source="c9HfcHfPdhRfk0jndsiD-21" target="c9HfcHfPdhRfk0jndsiD-20" edge="1">
          <mxGeometry width="100" height="100" relative="1" as="geometry">
            <Array as="points">
              <mxPoint x="836.5" y="435" />
              <mxPoint x="836.5" y="404.1666564941406" />
              <mxPoint x="836.5" y="373.3333435058594" />
              <mxPoint x="836.5" y="342.5" />
            </Array>
          </mxGeometry>
        </mxCell>
        <mxCell id="c9HfcHfPdhRfk0jndsiD-23" value="&lt;div style=&#39;width: 44.0px;height:auto;word-break: break-word;&#39;&gt;&lt;div align=&quot;center&quot;&gt;&lt;span style=&quot;font-size:12px;font-weight:bold;font-family:Arial; line-height: 0;&quot;&gt;&lt;span style=&quot; line-height: normal;&quot;&gt;string&lt;/span&gt;&lt;/span&gt;&lt;/div&gt;&lt;/div&gt;" style="text;html=1;nl2Br=0;points=[];labelBackgroundColor=#FFFFFF;html=1;nl2Br=0;verticalAlign=middle;align=center;spacingLeft=0.0;spacingRight=0;gliffyId=185;" parent="c9HfcHfPdhRfk0jndsiD-22" vertex="1">
          <mxGeometry x="-0.1567567567567567" relative="1" as="geometry">
            <mxPoint as="offset" />
          </mxGeometry>
        </mxCell>
        <mxCell id="c9HfcHfPdhRfk0jndsiD-24" style="shape=filledEdge;strokeWidth=2;strokeColor=#000000;fillColor=none;startArrow=none;startFill=0;startSize=6;endArrow=block;endFill=1;endSize=6;rounded=1;gliffyId=36;edgeStyle=orthogonalEdgeStyle;" parent="1" source="c9HfcHfPdhRfk0jndsiD-11" target="c9HfcHfPdhRfk0jndsiD-3" edge="1">
          <mxGeometry width="100" height="100" relative="1" as="geometry">
            <Array as="points">
              <mxPoint x="496.5" y="302.5" />
              <mxPoint x="496.5" y="212.5" />
              <mxPoint x="372.94659423828125" y="212.5" />
              <mxPoint x="372.94659423828125" y="252.5" />
            </Array>
          </mxGeometry>
        </mxCell>
        <mxCell id="c9HfcHfPdhRfk0jndsiD-25" style="shape=filledEdge;strokeWidth=2;strokeColor=#000000;fillColor=none;startArrow=none;startFill=0;startSize=6;endArrow=block;endFill=1;endSize=6;rounded=1;html=1;nl2Br=0;gliffyId=42;edgeStyle=orthogonalEdgeStyle;" parent="1" source="c9HfcHfPdhRfk0jndsiD-10" target="c9HfcHfPdhRfk0jndsiD-11" edge="1">
          <mxGeometry width="100" height="100" relative="1" as="geometry">
            <Array as="points">
              <mxPoint x="321.5" y="532.5" />
              <mxPoint x="321.5" y="572.5" />
              <mxPoint x="488.5" y="572.5" />
              <mxPoint x="488.5" y="532.5" />
            </Array>
          </mxGeometry>
        </mxCell>
        <mxCell id="c9HfcHfPdhRfk0jndsiD-26" value="&lt;div style=&#39;width: 89.0px;height:auto;word-break: break-word;&#39;&gt;&lt;div align=&quot;center&quot;&gt;&lt;span style=&quot;font-size:12px;font-weight:bold;font-family:Arial; line-height: 0;&quot;&gt;&lt;span style=&quot; line-height: normal;&quot;&gt;macroexpand&lt;/span&gt;&lt;/span&gt;&lt;/div&gt;&lt;/div&gt;" style="text;html=1;nl2Br=0;points=[];labelBackgroundColor=#FFFFFF;html=1;nl2Br=0;verticalAlign=middle;align=center;spacingLeft=0.0;spacingRight=0;gliffyId=187;" parent="c9HfcHfPdhRfk0jndsiD-25" vertex="1">
          <mxGeometry x="-0.03117165447637804" relative="1" as="geometry">
            <mxPoint as="offset" />
          </mxGeometry>
        </mxCell>
        <mxCell id="c9HfcHfPdhRfk0jndsiD-27" style="shape=rect;shadow=0;strokeWidth=2;fillColor=#FFFFFF;strokeColor=#333333;opacity=100.0;gliffyId=44;" parent="1" vertex="1">
          <mxGeometry x="306.5" y="52.5" width="395" height="70" as="geometry" />
        </mxCell>
        <mxCell id="c9HfcHfPdhRfk0jndsiD-28" style="shape=filledEdge;strokeWidth=2;strokeColor=#000000;fillColor=none;startArrow=none;startFill=0;startSize=6;endArrow=block;endFill=1;endSize=6;rounded=1;html=1;nl2Br=0;gliffyId=46;edgeStyle=orthogonalEdgeStyle;" parent="1" source="c9HfcHfPdhRfk0jndsiD-27" target="c9HfcHfPdhRfk0jndsiD-34" edge="1">
          <mxGeometry width="100" height="100" relative="1" as="geometry">
            <Array as="points">
              <mxPoint x="331.5" y="122.5" />
              <mxPoint x="331.5" y="182.50369262695312" />
              <mxPoint x="331.5" y="242.50741577148438" />
              <mxPoint x="331.5" y="302.5111083984375" />
            </Array>
          </mxGeometry>
        </mxCell>
        <mxCell id="c9HfcHfPdhRfk0jndsiD-29" value="&lt;div style=&#39;width: 53.0px;height:auto;word-break: break-word;&#39;&gt;&lt;div align=&quot;center&quot;&gt;&lt;span style=&quot;font-size:12px;font-weight:bold;font-family:Arial; line-height: 0;&quot;&gt;&lt;span style=&quot; line-height: normal;&quot;&gt;symbol&lt;/span&gt;&lt;/span&gt;&lt;/div&gt;&lt;div align=&quot;center&quot;&gt;&lt;span style=&quot;font-size:12px;font-weight:bold;font-family:Arial; line-height: 0;&quot;&gt;&lt;span style=&quot; line-height: normal;&quot;&gt;lookup&lt;/span&gt;&lt;/span&gt;&lt;/div&gt;&lt;/div&gt;" style="text;html=1;nl2Br=0;points=[];labelBackgroundColor=#FFFFFF;html=1;nl2Br=0;verticalAlign=middle;align=center;spacingLeft=0.0;spacingRight=0;gliffyId=112;" parent="c9HfcHfPdhRfk0jndsiD-28" vertex="1">
          <mxGeometry x="-0.21130582637728546" relative="1" as="geometry">
            <mxPoint as="offset" />
          </mxGeometry>
        </mxCell>
        <mxCell id="c9HfcHfPdhRfk0jndsiD-30" style="shape=filledEdge;strokeWidth=2;strokeColor=#000000;fillColor=none;startArrow=none;startFill=0;startSize=6;endArrow=block;endFill=1;endSize=6;rounded=1;gliffyId=53;edgeStyle=orthogonalEdgeStyle;" parent="1" edge="1">
          <mxGeometry width="100" height="100" relative="1" as="geometry">
            <mxPoint x="522.5" y="340.5049743652344" as="sourcePoint" />
            <mxPoint x="522.5" y="155.5" as="targetPoint" />
            <Array as="points">
              <mxPoint x="522.5" y="248.0024871826172" />
            </Array>
          </mxGeometry>
        </mxCell>
        <mxCell id="c9HfcHfPdhRfk0jndsiD-31" style="shape=filledEdge;strokeWidth=1;strokeColor=#000000;fillColor=none;startArrow=none;startFill=0;startSize=6;endArrow=block;endFill=1;endSize=6;rounded=1;dashed=1;fixDash=1;dashPattern=1.0 1.0;html=1;nl2Br=0;gliffyId=58;edgeStyle=orthogonalEdgeStyle;" parent="1" source="c9HfcHfPdhRfk0jndsiD-1" target="c9HfcHfPdhRfk0jndsiD-27" edge="1">
          <mxGeometry width="100" height="100" relative="1" as="geometry">
            <Array as="points">
              <mxPoint x="714.8092651367188" y="87.5" />
              <mxPoint x="714.8092651367188" y="24" />
              <mxPoint x="669.9000244140625" y="24" />
              <mxPoint x="669.9000244140625" y="52.5" />
            </Array>
          </mxGeometry>
        </mxCell>
        <mxCell id="c9HfcHfPdhRfk0jndsiD-32" value="&lt;div style=&#39;width: 36.0px;height:auto;word-break: break-word;&#39;&gt;&lt;div align=&quot;center&quot;&gt;&lt;span style=&quot;font-size:10px;font-weight:bold;font-family:Arial; line-height: 0;&quot;&gt;&lt;span style=&quot; line-height: normal;&quot;&gt;outer&lt;/span&gt;&lt;/span&gt;&lt;/div&gt;&lt;/div&gt;" style="text;html=1;nl2Br=0;points=[];labelBackgroundColor=#FFFFFF;html=1;nl2Br=0;verticalAlign=middle;align=center;spacingLeft=0.0;spacingRight=0;gliffyId=168;" parent="c9HfcHfPdhRfk0jndsiD-31" vertex="1">
          <mxGeometry x="0.2546657463953934" relative="1" as="geometry">
            <mxPoint as="offset" />
          </mxGeometry>
        </mxCell>
        <mxCell id="c9HfcHfPdhRfk0jndsiD-33" value="&lt;div style=&#39;width: 53.0px;height:auto;word-break: break-word;&#39;&gt;&lt;div align=&quot;center&quot;&gt;&lt;span style=&quot;font-size:14px;font-weight:bold;font-family:Arial;text-decoration:none; line-height: normal;&quot;&gt;apply&lt;/span&gt;&lt;/div&gt;&lt;/div&gt;" style="shape=rect;shadow=0;strokeWidth=2;fillColor=#FFFFFF;strokeColor=#333333;opacity=100.0;html=1;nl2Br=0;verticalAlign=middle;align=center;spacingLeft=8.0;spacingRight=6;whiteSpace=wrap;gliffyId=87;" parent="1" vertex="1">
          <mxGeometry x="421.5" y="302.5" width="60" height="28" as="geometry" />
        </mxCell>
        <mxCell id="c9HfcHfPdhRfk0jndsiD-34" value="&lt;div style=&#39;width: 81.0px;height:auto;word-break: break-word;&#39;&gt;&lt;div align=&quot;center&quot;&gt;&lt;span style=&quot;font-size:14px;font-weight:bold;font-family:Arial;text-decoration:none; line-height: normal;&quot;&gt;eval_ast&lt;/span&gt;&lt;/div&gt;&lt;/div&gt;" style="shape=rect;shadow=0;strokeWidth=2;fillColor=#FFFFFF;strokeColor=#333333;opacity=100.0;html=1;nl2Br=0;verticalAlign=middle;align=center;spacingLeft=9.0;spacingRight=6;whiteSpace=wrap;gliffyId=90;" parent="1" vertex="1">
          <mxGeometry x="261.5" y="302.5" width="90" height="28" as="geometry" />
        </mxCell>
        <mxCell id="c9HfcHfPdhRfk0jndsiD-35" value="&lt;div style=&#39;width: 53.0px;height:auto;word-break: break-word;&#39;&gt;&lt;div align=&quot;center&quot;&gt;&lt;span style=&quot;font-size:14px;font-weight:bold;font-family:Arial;text-decoration:none; line-height: normal;&quot;&gt;READ&lt;/span&gt;&lt;/div&gt;&lt;/div&gt;" style="shape=rect;shadow=0;strokeWidth=2;fillColor=#c9daf8;strokeColor=#333333;opacity=100.0;html=1;nl2Br=0;verticalAlign=middle;align=center;spacingLeft=8.0;spacingRight=6;whiteSpace=wrap;gliffyId=92;" parent="1" vertex="1">
          <mxGeometry x="51.5" y="252.5" width="60" height="28" as="geometry" />
        </mxCell>
        <mxCell id="c9HfcHfPdhRfk0jndsiD-36" value="&lt;div style=&#39;width: 53.0px;height:auto;word-break: break-word;&#39;&gt;&lt;div align=&quot;center&quot;&gt;&lt;span style=&quot;font-size:14px;font-weight:bold;font-family:Arial;text-decoration:none; line-height: normal;&quot;&gt;EVAL&lt;/span&gt;&lt;/div&gt;&lt;/div&gt;" style="shape=rect;shadow=0;strokeWidth=2;fillColor=#c9daf8;strokeColor=#333333;opacity=100.0;html=1;nl2Br=0;verticalAlign=middle;align=center;spacingLeft=8.0;spacingRight=6;whiteSpace=wrap;gliffyId=94;" parent="1" vertex="1">
          <mxGeometry x="226.5" y="252.5" width="60" height="28" as="geometry" />
        </mxCell>
        <mxCell id="c9HfcHfPdhRfk0jndsiD-37" value="&lt;div style=&#39;width: 62.333336px;height:auto;word-break: break-word;&#39;&gt;&lt;div align=&quot;center&quot;&gt;&lt;span style=&quot;font-size:14px;font-weight:bold;font-family:Arial;text-decoration:none; line-height: normal;&quot;&gt;PRINT&lt;/span&gt;&lt;/div&gt;&lt;/div&gt;" style="shape=rect;shadow=0;strokeWidth=2;fillColor=#c9daf8;strokeColor=#333333;opacity=100.0;html=1;nl2Br=0;verticalAlign=middle;align=center;spacingLeft=8.333333;spacingRight=6;whiteSpace=wrap;gliffyId=96;" parent="1" vertex="1">
          <mxGeometry x="781.5" y="252.5" width="70" height="28" as="geometry" />
        </mxCell>
        <mxCell id="c9HfcHfPdhRfk0jndsiD-38" value="&lt;div style=&#39;width: 53.0px;height:auto;word-break: break-word;&#39;&gt;&lt;div align=&quot;center&quot;&gt;&lt;span style=&quot;font-size:14px;font-weight:bold;font-family:Arial;text-decoration:none; line-height: normal;&quot;&gt;Env&lt;/span&gt;&lt;/div&gt;&lt;/div&gt;" style="shape=rect;shadow=0;strokeWidth=2;fillColor=#FFFFFF;strokeColor=#333333;opacity=100.0;html=1;nl2Br=0;verticalAlign=middle;align=center;spacingLeft=8.0;spacingRight=6;whiteSpace=wrap;gliffyId=110;" parent="1" vertex="1">
          <mxGeometry x="306.5" y="52.5" width="60" height="28" as="geometry" />
        </mxCell>
        <mxCell id="c9HfcHfPdhRfk0jndsiD-39" value="&lt;div style=&#39;width: 102.6px;height:auto;word-break: break-word;&#39;&gt;&lt;div align=&quot;center&quot;&gt;&lt;span style=&quot;font-size:12px;font-weight:bold;font-family:Arial;text-decoration:none; line-height: 0;&quot;&gt;&lt;span style=&quot;text-decoration:none; line-height: normal;&quot;&gt;try*/catch*&lt;/span&gt;&lt;/span&gt;&lt;/div&gt;&lt;/div&gt;" style="shape=rect;shadow=0;strokeWidth=2;fillColor=#FFFFFF;strokeColor=#333333;opacity=100.0;html=1;nl2Br=0;verticalAlign=middle;align=center;spacingLeft=8.2;spacingRight=6;whiteSpace=wrap;gliffyId=122;" parent="1" vertex="1">
          <mxGeometry x="481.5" y="402.5" width="110" height="20" as="geometry" />
        </mxCell>
        <mxCell id="c9HfcHfPdhRfk0jndsiD-40" value="&lt;div style=&#39;width: 35.4px;height:auto;word-break: break-word;&#39;&gt;&lt;div align=&quot;center&quot;&gt;&lt;span style=&quot;font-size:12px;font-weight:bold;font-family:Arial;text-decoration:none; line-height: 0;&quot;&gt;&lt;span style=&quot;text-decoration:none; line-height: normal;&quot;&gt;do&lt;/span&gt;&lt;/span&gt;&lt;/div&gt;&lt;/div&gt;" style="shape=rect;shadow=0;strokeWidth=2;fillColor=#FFFFFF;strokeColor=#333333;opacity=100.0;html=1;nl2Br=0;verticalAlign=middle;align=center;spacingLeft=6.8;spacingRight=6;whiteSpace=wrap;gliffyId=124;" parent="1" vertex="1">
          <mxGeometry x="481.5" y="432.5" width="40" height="20" as="geometry" />
        </mxCell>
        <mxCell id="c9HfcHfPdhRfk0jndsiD-41" value="&lt;div style=&#39;width: 35.4px;height:auto;word-break: break-word;&#39;&gt;&lt;div align=&quot;center&quot;&gt;&lt;span style=&quot;font-size:12px;font-weight:bold;font-family:Arial; line-height: 0;&quot;&gt;&lt;span style=&quot; line-height: normal;&quot;&gt;if&lt;/span&gt;&lt;/span&gt;&lt;/div&gt;&lt;/div&gt;" style="shape=rect;shadow=0;strokeWidth=2;fillColor=#FFFFFF;strokeColor=#333333;opacity=100.0;html=1;nl2Br=0;verticalAlign=middle;align=center;spacingLeft=6.8;spacingRight=6;whiteSpace=wrap;gliffyId=126;" parent="1" vertex="1">
          <mxGeometry x="481.5" y="462.5" width="40" height="20" as="geometry" />
        </mxCell>
        <mxCell id="c9HfcHfPdhRfk0jndsiD-42" value="&lt;div style=&#39;width: 30.599998px;height:auto;word-break: break-word;&#39;&gt;&lt;div align=&quot;center&quot;&gt;&lt;span style=&quot;font-size:12px;font-weight:bold;font-family:Arial; line-height: 0;&quot;&gt;&lt;span style=&quot; line-height: normal;&quot;&gt;fn*&lt;/span&gt;&lt;/span&gt;&lt;/div&gt;&lt;/div&gt;" style="shape=rect;shadow=0;strokeWidth=2;fillColor=#FFFFFF;strokeColor=#333333;opacity=100.0;html=1;nl2Br=0;verticalAlign=middle;align=center;spacingLeft=6.7;spacingRight=6;whiteSpace=wrap;gliffyId=128;" parent="1" vertex="1">
          <mxGeometry x="656.5" y="432.5" width="35" height="20" as="geometry" />
        </mxCell>
        <mxCell id="c9HfcHfPdhRfk0jndsiD-43" value="&lt;div style=&#39;width: 45.0px;height:auto;word-break: break-word;&#39;&gt;&lt;div align=&quot;center&quot;&gt;&lt;span style=&quot;font-size:12px;font-weight:bold;font-family:Arial; line-height: 0;&quot;&gt;&lt;span style=&quot; line-height: normal;&quot;&gt;let*&lt;/span&gt;&lt;/span&gt;&lt;/div&gt;&lt;/div&gt;" style="shape=rect;shadow=0;strokeWidth=2;fillColor=#FFFFFF;strokeColor=#333333;opacity=100.0;html=1;nl2Br=0;verticalAlign=middle;align=center;spacingLeft=7.0;spacingRight=6;whiteSpace=wrap;gliffyId=130;" parent="1" vertex="1">
          <mxGeometry x="481.5" y="342.5" width="50" height="20" as="geometry" />
        </mxCell>
        <mxCell id="c9HfcHfPdhRfk0jndsiD-44" value="&lt;div style=&#39;width: 40.2px;height:auto;word-break: break-word;&#39;&gt;&lt;div align=&quot;center&quot;&gt;&lt;span style=&quot;font-size:12px;font-weight:bold;font-family:Arial; line-height: 0;&quot;&gt;&lt;span style=&quot; line-height: normal;&quot;&gt;def!&lt;/span&gt;&lt;/span&gt;&lt;/div&gt;&lt;/div&gt;" style="shape=rect;shadow=0;strokeWidth=2;fillColor=#FFFFFF;strokeColor=#333333;opacity=100.0;html=1;nl2Br=0;verticalAlign=middle;align=center;spacingLeft=6.9;spacingRight=6;whiteSpace=wrap;gliffyId=134;" parent="1" vertex="1">
          <mxGeometry x="646.5" y="342.5" width="45" height="20" as="geometry" />
        </mxCell>
        <mxCell id="c9HfcHfPdhRfk0jndsiD-45" value="&lt;div style=&#39;width: 83.4px;height:auto;word-break: break-word;&#39;&gt;&lt;div align=&quot;center&quot;&gt;&lt;span style=&quot;font-size:12px;font-weight:bold;font-family:Arial; line-height: 0;&quot;&gt;&lt;span style=&quot; line-height: normal;&quot;&gt;defmacro!&lt;/span&gt;&lt;/span&gt;&lt;/div&gt;&lt;/div&gt;" style="shape=rect;shadow=0;strokeWidth=2;fillColor=#FFFFFF;strokeColor=#333333;opacity=100.0;html=1;nl2Br=0;verticalAlign=middle;align=center;spacingLeft=7.8;spacingRight=6;whiteSpace=wrap;gliffyId=136;" parent="1" vertex="1">
          <mxGeometry x="601.5" y="372.5" width="90" height="20" as="geometry" />
        </mxCell>
        <mxCell id="c9HfcHfPdhRfk0jndsiD-46" value="&lt;div style=&#39;width: 57.0px;height:auto;word-break: break-word;&#39;&gt;&lt;div align=&quot;center&quot;&gt;&lt;span style=&quot;font-size:12px;font-weight:bold;font-family:Arial; line-height: 0;&quot;&gt;&lt;span style=&quot; line-height: normal;&quot;&gt;quote&lt;/span&gt;&lt;/span&gt;&lt;/div&gt;&lt;/div&gt;" style="shape=rect;shadow=0;strokeWidth=2;fillColor=#FFFFFF;strokeColor=#333333;opacity=100.0;html=1;nl2Br=0;verticalAlign=middle;align=center;spacingLeft=7.25;spacingRight=6;whiteSpace=wrap;gliffyId=138;" parent="1" vertex="1">
          <mxGeometry x="629" y="462.5" width="62.5" height="20" as="geometry" />
        </mxCell>
        <mxCell id="c9HfcHfPdhRfk0jndsiD-47" value="&lt;div style=&#39;width: 83.4px;height:auto;word-break: break-word;&#39;&gt;&lt;div align=&quot;center&quot;&gt;&lt;span style=&quot;font-size:12px;font-weight:bold;font-family:Arial; line-height: 0;&quot;&gt;&lt;span style=&quot; line-height: normal;&quot;&gt;quasiquote&lt;/span&gt;&lt;/span&gt;&lt;/div&gt;&lt;/div&gt;" style="shape=rect;shadow=0;strokeWidth=2;fillColor=#FFFFFF;strokeColor=#333333;opacity=100.0;html=1;nl2Br=0;verticalAlign=middle;align=center;spacingLeft=7.8;spacingRight=6;whiteSpace=wrap;gliffyId=140;" parent="1" vertex="1">
          <mxGeometry x="481.5" y="492.5" width="90" height="20" as="geometry" />
        </mxCell>
        <mxCell id="c9HfcHfPdhRfk0jndsiD-48" value="&lt;div style=&#39;width: 93.0px;height:auto;word-break: break-word;&#39;&gt;&lt;div align=&quot;center&quot;&gt;&lt;span style=&quot;font-size:12px;font-weight:bold;font-family:Arial; line-height: 0;&quot;&gt;&lt;span style=&quot; line-height: normal;&quot;&gt;macroexpand&lt;/span&gt;&lt;/span&gt;&lt;/div&gt;&lt;/div&gt;" style="shape=rect;shadow=0;strokeWidth=2;fillColor=#FFFFFF;strokeColor=#333333;opacity=100.0;html=1;nl2Br=0;verticalAlign=middle;align=center;spacingLeft=8.0;spacingRight=6;whiteSpace=wrap;gliffyId=142;" parent="1" vertex="1">
          <mxGeometry x="591.5" y="492.5" width="100" height="20" as="geometry" />
        </mxCell>
        <mxCell id="c9HfcHfPdhRfk0jndsiD-49" value="&lt;div style=&#39;width: 73.8px;height:auto;word-break: break-word;&#39;&gt;&lt;div align=&quot;center&quot;&gt;&lt;span style=&quot;font-size:12px;font-weight:bold;font-family:Arial; line-height: 0;&quot;&gt;&lt;span style=&quot; line-height: normal;&quot;&gt;&amp;#34;apply&amp;#34;&lt;/span&gt;&lt;/span&gt;&lt;/div&gt;&lt;/div&gt;" style="shape=rect;shadow=0;strokeWidth=2;fillColor=#FFFFFF;strokeColor=#333333;opacity=100.0;html=1;nl2Br=0;verticalAlign=middle;align=center;spacingLeft=7.6;spacingRight=6;whiteSpace=wrap;gliffyId=146;" parent="1" vertex="1">
          <mxGeometry x="481.5" y="372.5" width="80" height="20" as="geometry" />
        </mxCell>
        <mxCell id="c9HfcHfPdhRfk0jndsiD-50" style="shape=filledEdge;strokeWidth=2;strokeColor=#000000;fillColor=none;startArrow=none;startFill=0;startSize=6;endArrow=block;endFill=1;endSize=6;rounded=1;gliffyId=158;edgeStyle=orthogonalEdgeStyle;" parent="1" source="c9HfcHfPdhRfk0jndsiD-49" target="c9HfcHfPdhRfk0jndsiD-3" edge="1">
          <mxGeometry width="100" height="100" relative="1" as="geometry">
            <Array as="points">
              <mxPoint x="481.5" y="382.5" />
              <mxPoint x="402.82330322265625" y="382.5" />
              <mxPoint x="402.82330322265625" y="212.50001525878906" />
              <mxPoint x="372.94659423828125" y="212.50001525878906" />
              <mxPoint x="372.94659423828125" y="252.50001525878906" />
            </Array>
          </mxGeometry>
        </mxCell>
        <mxCell id="c9HfcHfPdhRfk0jndsiD-51" style="shape=filledEdge;strokeWidth=2;strokeColor=#000000;fillColor=none;startArrow=none;startFill=0;startSize=6;endArrow=block;endFill=1;endSize=6;rounded=1;gliffyId=159;edgeStyle=orthogonalEdgeStyle;" parent="1" source="c9HfcHfPdhRfk0jndsiD-40" target="c9HfcHfPdhRfk0jndsiD-3" edge="1">
          <mxGeometry width="100" height="100" relative="1" as="geometry">
            <Array as="points">
              <mxPoint x="481.5" y="442.5" />
              <mxPoint x="403.0233154296875" y="442.5" />
              <mxPoint x="403.0233154296875" y="212.49998474121094" />
              <mxPoint x="372.9466247558594" y="212.49998474121094" />
              <mxPoint x="372.9466247558594" y="252.49998474121094" />
            </Array>
          </mxGeometry>
        </mxCell>
        <mxCell id="c9HfcHfPdhRfk0jndsiD-52" style="shape=filledEdge;strokeWidth=2;strokeColor=#000000;fillColor=none;startArrow=none;startFill=0;startSize=6;endArrow=block;endFill=1;endSize=6;rounded=1;gliffyId=160;edgeStyle=orthogonalEdgeStyle;" parent="1" source="c9HfcHfPdhRfk0jndsiD-41" target="c9HfcHfPdhRfk0jndsiD-3" edge="1">
          <mxGeometry width="100" height="100" relative="1" as="geometry">
            <Array as="points">
              <mxPoint x="481.5" y="472.5" />
              <mxPoint x="403.22332763671875" y="472.5" />
              <mxPoint x="403.22332763671875" y="212.5" />
              <mxPoint x="372.9466247558594" y="212.5" />
              <mxPoint x="372.9466247558594" y="252.50001525878906" />
            </Array>
          </mxGeometry>
        </mxCell>
        <mxCell id="c9HfcHfPdhRfk0jndsiD-53" style="shape=filledEdge;strokeWidth=2;strokeColor=#000000;fillColor=none;startArrow=none;startFill=0;startSize=6;endArrow=block;endFill=1;endSize=6;rounded=1;gliffyId=161;edgeStyle=orthogonalEdgeStyle;" parent="1" source="c9HfcHfPdhRfk0jndsiD-47" target="c9HfcHfPdhRfk0jndsiD-3" edge="1">
          <mxGeometry width="100" height="100" relative="1" as="geometry">
            <Array as="points">
              <mxPoint x="481.5" y="502.4999694824219" />
              <mxPoint x="403.2232971191406" y="502.4999694824219" />
              <mxPoint x="403.2232971191406" y="212.49996948242188" />
              <mxPoint x="372.94659423828125" y="212.49996948242188" />
              <mxPoint x="372.94659423828125" y="252.49996948242188" />
            </Array>
          </mxGeometry>
        </mxCell>
        <mxCell id="c9HfcHfPdhRfk0jndsiD-54" value="&lt;div style=&#39;width: 62.333336px;height:auto;word-break: break-word;&#39;&gt;&lt;div align=&quot;center&quot;&gt;&lt;span style=&quot;font-size:14px;font-weight:bold;font-family:Arial;text-decoration:none; line-height: normal;&quot;&gt;LOOP&lt;/span&gt;&lt;/div&gt;&lt;/div&gt;" style="shape=rect;shadow=0;strokeWidth=2;fillColor=#c9daf8;strokeColor=#333333;opacity=100.0;html=1;nl2Br=0;verticalAlign=middle;align=center;spacingLeft=8.333333;spacingRight=6;whiteSpace=wrap;gliffyId=176;" parent="1" vertex="1">
          <mxGeometry x="421.5" y="696.5" width="70" height="28" as="geometry" />
        </mxCell>
        <mxCell id="c9HfcHfPdhRfk0jndsiD-55" style="shape=filledEdge;strokeWidth=2;strokeColor=#000000;fillColor=none;startArrow=none;startFill=0;startSize=6;endArrow=block;endFill=1;endSize=6;rounded=1;gliffyId=154;edgeStyle=orthogonalEdgeStyle;" parent="1" edge="1">
          <mxGeometry width="100" height="100" relative="1" as="geometry">
            <mxPoint x="669.5" y="342.5105285644531" as="sourcePoint" />
            <mxPoint x="669.5" y="122.5" as="targetPoint" />
            <Array as="points">
              <mxPoint x="669.5" y="232.50526428222656" />
            </Array>
          </mxGeometry>
        </mxCell>
        <mxCell id="c9HfcHfPdhRfk0jndsiD-56" style="shape=filledEdge;strokeWidth=2;strokeColor=#000000;fillColor=none;startArrow=none;startFill=0;startSize=6;endArrow=block;endFill=1;endSize=6;rounded=1;html=1;nl2Br=0;gliffyId=51;edgeStyle=orthogonalEdgeStyle;" parent="1" source="c9HfcHfPdhRfk0jndsiD-45" target="c9HfcHfPdhRfk0jndsiD-27" edge="1">
          <mxGeometry width="100" height="100" relative="1" as="geometry">
            <Array as="points">
              <mxPoint x="631.5" y="372.5264892578125" />
              <mxPoint x="631.5" y="289.184326171875" />
              <mxPoint x="631.5" y="205.8421630859375" />
              <mxPoint x="631.5" y="122.5" />
            </Array>
          </mxGeometry>
        </mxCell>
        <mxCell id="c9HfcHfPdhRfk0jndsiD-57" value="&lt;div style=&#39;width: 74.0px;height:auto;word-break: break-word;&#39;&gt;&lt;div align=&quot;right&quot;&gt;&lt;span style=&quot;font-size:12px;font-weight:bold;font-family:Arial; line-height: 0;&quot;&gt;&lt;span style=&quot; line-height: normal;&quot;&gt;update env&lt;/span&gt;&lt;/span&gt;&lt;/div&gt;&lt;/div&gt;" style="text;html=1;nl2Br=0;points=[];labelBackgroundColor=#FFFFFF;html=1;nl2Br=0;verticalAlign=middle;align=center;spacingLeft=0.0;spacingRight=0;gliffyId=189;" parent="c9HfcHfPdhRfk0jndsiD-56" vertex="1">
          <mxGeometry x="0.3359693404145152" relative="1" as="geometry">
            <mxPoint y="20" as="offset" />
          </mxGeometry>
        </mxCell>
        <mxCell id="c9HfcHfPdhRfk0jndsiD-58" style="shape=filledEdge;strokeWidth=2;strokeColor=#000000;fillColor=none;startArrow=none;startFill=0;startSize=6;endArrow=block;endFill=1;endSize=6;rounded=1;gliffyId=152;edgeStyle=orthogonalEdgeStyle;" parent="1" edge="1">
          <mxGeometry width="100" height="100" relative="1" as="geometry">
            <mxPoint x="576.1666259765625" y="402.50091552734375" as="sourcePoint" />
            <mxPoint x="576.1666259765625" y="157.50001525878906" as="targetPoint" />
            <Array as="points">
              <mxPoint x="576.1666259765625" y="280.0004577636719" />
            </Array>
          </mxGeometry>
        </mxCell>
        <mxCell id="c9HfcHfPdhRfk0jndsiD-59" style="shape=filledEdge;strokeWidth=2;strokeColor=#000000;fillColor=none;startArrow=none;startFill=0;startSize=6;endArrow=block;endFill=1;endSize=6;rounded=1;html=1;nl2Br=0;gliffyId=150;edgeStyle=orthogonalEdgeStyle;" parent="1" source="c9HfcHfPdhRfk0jndsiD-49" edge="1">
          <mxGeometry width="100" height="100" relative="1" as="geometry">
            <mxPoint x="549.5" y="156.83334350585938" as="targetPoint" />
            <Array as="points">
              <mxPoint x="549.5" y="372.5" />
              <mxPoint x="549.5" y="264.66668701171875" />
            </Array>
          </mxGeometry>
        </mxCell>
        <mxCell id="c9HfcHfPdhRfk0jndsiD-60" value="&lt;div style=&#39;width: 70.0px;height:auto;word-break: break-word;&#39;&gt;&lt;div align=&quot;center&quot;&gt;&lt;span style=&quot;font-size:12px;font-weight:bold;font-family:Arial; line-height: 0;&quot;&gt;&lt;span style=&quot; line-height: normal;&quot;&gt;create env&lt;/span&gt;&lt;/span&gt;&lt;/div&gt;&lt;/div&gt;" style="text;html=1;nl2Br=0;points=[];labelBackgroundColor=#FFFFFF;html=1;nl2Br=0;verticalAlign=middle;align=center;spacingLeft=0.0;spacingRight=0;gliffyId=151;" parent="c9HfcHfPdhRfk0jndsiD-59" vertex="1">
          <mxGeometry x="0.5857805255023187" relative="1" as="geometry">
            <mxPoint as="offset" />
          </mxGeometry>
        </mxCell>
        <mxCell id="c9HfcHfPdhRfk0jndsiD-61" style="shape=filledEdge;strokeWidth=2;strokeColor=#000000;fillColor=none;startArrow=none;startFill=0;startSize=6;endArrow=block;endFill=1;endSize=6;rounded=1;html=1;nl2Br=0;gliffyId=157;edgeStyle=orthogonalEdgeStyle;" parent="1" source="c9HfcHfPdhRfk0jndsiD-43" target="c9HfcHfPdhRfk0jndsiD-3" edge="1">
          <mxGeometry width="100" height="100" relative="1" as="geometry">
            <Array as="points">
              <mxPoint x="481.5" y="352.5" />
              <mxPoint x="403.2232971191406" y="352.5" />
              <mxPoint x="403.2232971191406" y="212.5" />
              <mxPoint x="372.94659423828125" y="212.5" />
              <mxPoint x="372.94659423828125" y="252.5" />
            </Array>
          </mxGeometry>
        </mxCell>
        <mxCell id="c9HfcHfPdhRfk0jndsiD-62" value="&lt;div style=&#39;width: 36.0px;height:auto;word-break: break-word;&#39;&gt;&lt;div align=&quot;center&quot;&gt;&lt;span style=&quot;font-size:12px;font-weight:bold;font-family:Arial; line-height: 0;&quot;&gt;&lt;span style=&quot; line-height: normal;&quot;&gt;TCO&lt;/span&gt;&lt;/span&gt;&lt;/div&gt;&lt;/div&gt;" style="text;html=1;nl2Br=0;points=[];labelBackgroundColor=#FFFFFF;html=1;nl2Br=0;verticalAlign=middle;align=center;spacingLeft=0.0;spacingRight=0;gliffyId=180;" parent="c9HfcHfPdhRfk0jndsiD-61" vertex="1">
          <mxGeometry x="0.08205532939406224" relative="1" as="geometry">
            <mxPoint as="offset" />
          </mxGeometry>
        </mxCell>
        <mxCell id="c9HfcHfPdhRfk0jndsiD-63" style="shape=rect;shadow=0;strokeWidth=2;fillColor=#FFFFFF;strokeColor=#333333;opacity=100.0;gliffyId=197;" parent="1" vertex="1">
          <mxGeometry x="31.5" y="-80" width="230" height="307.5" as="geometry" />
        </mxCell>
        <mxCell id="c9HfcHfPdhRfk0jndsiD-64" value="&lt;div style=&#39;width: 48.333332px;height:auto;word-break: break-word;&#39;&gt;&lt;div align=&quot;center&quot;&gt;&lt;span style=&quot;font-size:14px;font-weight:bold;font-family:Arial;text-decoration:none; line-height: normal;&quot;&gt;Core&lt;/span&gt;&lt;/div&gt;&lt;/div&gt;" style="shape=rect;shadow=0;strokeWidth=2;fillColor=#FFFFFF;strokeColor=#333333;opacity=100.0;html=1;nl2Br=0;verticalAlign=middle;align=center;spacingLeft=7.8333335;spacingRight=6;whiteSpace=wrap;gliffyId=195;" parent="1" vertex="1">
          <mxGeometry x="31.5" y="-80" width="55" height="28" as="geometry" />
        </mxCell>
        <mxCell id="c9HfcHfPdhRfk0jndsiD-65" value="&lt;div style=&#39;width: 53.0px;height:auto;word-break: break-word;&#39;&gt;&lt;div align=&quot;left&quot;&gt;&lt;span style=&quot;font-size:10px;font-weight:bold;font-family:Arial; line-height: 0;&quot;&gt;&lt;span style=&quot; line-height: normal;&quot;&gt;eval&lt;/span&gt;&lt;/span&gt;&lt;/div&gt;&lt;div align=&quot;left&quot;&gt;&lt;span style=&quot;font-size:10px;font-weight:bold;font-family:Arial;text-decoration:none; line-height: 0;&quot;&gt;&lt;span style=&quot;text-decoration:none; line-height: normal;&quot;&gt;&amp;nbsp;&lt;/span&gt;&lt;/span&gt;&lt;/div&gt;&lt;div align=&quot;left&quot;&gt;&lt;span style=&quot;font-size:10px;font-weight:bold; line-height: 0;&quot;&gt;&lt;span style=&quot; line-height: normal;&quot;&gt;*ARGV*&lt;/span&gt;&lt;/span&gt;&lt;/div&gt;&lt;/div&gt;" style="text;html=1;nl2Br=0;html=1;nl2Br=0;verticalAlign=middle;align=left;spacingLeft=0.0;spacingRight=0;whiteSpace=wrap;gliffyId=201;" parent="1" vertex="1">
          <mxGeometry x="393.5" y="63.5" width="56" height="33" as="geometry" />
        </mxCell>
        <mxCell id="c9HfcHfPdhRfk0jndsiD-66" value="&lt;div style=&quot;width: 222.0px;height:auto;word-break: break-word;&quot;&gt;&lt;div align=&quot;left&quot;&gt;&lt;span style=&quot;font-size:10px;font-weight:bold;font-family:Arial; line-height: 0;&quot;&gt;&lt;span style=&quot;line-height: normal;&quot;&gt;=&amp;nbsp;&lt;/span&gt;&lt;/span&gt;&lt;span style=&quot;font-size:10px;font-weight:bold; line-height: 0;&quot;&gt;&lt;span style=&quot;line-height: normal;&quot;&gt;throw&amp;nbsp;&lt;/span&gt;&lt;/span&gt;&lt;span style=&quot;font-size:10px;font-weight:bold; line-height: 0;&quot;&gt;&lt;span style=&quot;line-height: normal;&quot;&gt;nil?&amp;nbsp;&lt;/span&gt;&lt;/span&gt;&lt;span style=&quot;font-size:10px;font-weight:bold; line-height: 0;&quot;&gt;&lt;span style=&quot;line-height: normal;&quot;&gt;true?&amp;nbsp;&lt;/span&gt;&lt;/span&gt;&lt;span style=&quot;font-size:10px;font-weight:bold; line-height: 0;&quot;&gt;&lt;span style=&quot;line-height: normal;&quot;&gt;false? &lt;span style=&quot;line-height: normal;&quot;&gt;string?&lt;/span&gt;&amp;nbsp;&lt;/span&gt;&lt;/span&gt;&lt;span style=&quot;font-size:10px;font-weight:bold; line-height: 0;&quot;&gt;&lt;span style=&quot;line-height: normal;&quot;&gt;symbol symbol? keyword keyword?&lt;/span&gt;&lt;/span&gt;&lt;/div&gt;&lt;div align=&quot;left&quot;&gt;&lt;span style=&quot;font-size:10px;font-weight:bold;font-family:Arial;text-decoration:none; line-height: 0;&quot;&gt;&lt;span style=&quot;text-decoration:none; line-height: normal;&quot;&gt;&amp;nbsp;&lt;/span&gt;&lt;/span&gt;&lt;/div&gt;&lt;div align=&quot;left&quot;&gt;&lt;span style=&quot;font-size:10px;font-weight:bold;font-family:Arial; line-height: 0;&quot;&gt;&lt;span style=&quot;line-height: normal;&quot;&gt;pr-str&amp;nbsp;&lt;/span&gt;&lt;/span&gt;&lt;span style=&quot;font-size:10px;font-weight:bold; line-height: 0;&quot;&gt;&lt;span style=&quot;line-height: normal;&quot;&gt;str&amp;nbsp;&lt;/span&gt;&lt;/span&gt;&lt;span style=&quot;font-size:10px;font-weight:bold; line-height: 0;&quot;&gt;&lt;span style=&quot;line-height: normal;&quot;&gt;prn&amp;nbsp;&lt;/span&gt;&lt;/span&gt;&lt;span style=&quot;font-size:10px;font-weight:bold; line-height: 0;&quot;&gt;&lt;span style=&quot;line-height: normal;&quot;&gt;println&amp;nbsp;&lt;/span&gt;&lt;/span&gt;&lt;span style=&quot;font-size:10px;font-weight:bold; line-height: 0;&quot;&gt;&lt;span style=&quot;line-height: 0;&quot;&gt;&lt;span style=&quot;line-height: normal;&quot;&gt;readline&lt;/span&gt;&amp;nbsp;&lt;/span&gt;&lt;/span&gt;&lt;span style=&quot;font-size:10px;font-weight:bold; line-height: 0;&quot;&gt;&lt;span style=&quot;line-height: normal;&quot;&gt;read-string&amp;nbsp;&lt;/span&gt;&lt;/span&gt;&lt;span style=&quot;font-size:10px;font-weight:bold; line-height: 0;&quot;&gt;&lt;span style=&quot;line-height: normal;&quot;&gt;slurp&lt;/span&gt;&lt;/span&gt;&lt;/div&gt;&lt;div align=&quot;left&quot;&gt;&lt;span style=&quot;font-size:10px;font-weight:bold;text-decoration:none; line-height: 0;&quot;&gt;&lt;span style=&quot;text-decoration:none; line-height: normal;&quot;&gt;&amp;nbsp;&lt;/span&gt;&lt;/span&gt;&lt;span style=&quot;font-size:10px;font-weight:bold;text-decoration:none; line-height: 0;&quot;&gt;&lt;span style=&quot;text-decoration:none; line-height: normal;&quot;&gt;&amp;nbsp;&lt;/span&gt;&lt;/span&gt;&lt;/div&gt;&lt;div align=&quot;left&quot;&gt;&lt;span style=&quot;font-size:10px;font-weight:bold;font-family:Arial; line-height: 0;&quot;&gt;&lt;span style=&quot;line-height: normal;&quot;&gt;&amp;lt; &amp;lt;= &amp;gt; &amp;gt;=&amp;nbsp;&lt;/span&gt;&lt;/span&gt;&lt;span style=&quot;font-size:10px;font-weight:bold; line-height: 0;&quot;&gt;&lt;span style=&quot;line-height: normal;&quot;&gt;+ - * /&amp;nbsp;&lt;/span&gt;&lt;/span&gt;&lt;span style=&quot;font-size: 10px; font-weight: bold; line-height: 0;&quot;&gt;&lt;span style=&quot;line-height: normal;&quot;&gt;time-ms&lt;/span&gt;&lt;/span&gt;&lt;/div&gt;&lt;div align=&quot;left&quot;&gt;&lt;span style=&quot;font-size:10px;font-weight:bold;text-decoration:none; line-height: 0;&quot;&gt;&lt;span style=&quot;text-decoration:none; line-height: normal;&quot;&gt;&amp;nbsp;&lt;/span&gt;&lt;/span&gt;&lt;/div&gt;&lt;div align=&quot;left&quot;&gt;&lt;span style=&quot;font-size:10px;font-weight:bold; line-height: 0;&quot;&gt;&lt;span style=&quot;line-height: normal;&quot;&gt;list list? vector vector?&amp;nbsp;&lt;/span&gt;&lt;/span&gt;&lt;span style=&quot;font-size:10px;font-weight:bold; line-height: 0;&quot;&gt;&lt;span style=&quot;line-height: normal;&quot;&gt;hash-map map? assoc dissoc&amp;nbsp;&lt;/span&gt;&lt;/span&gt;&lt;span style=&quot;font-size:10px;font-weight:bold; line-height: 0;&quot;&gt;&lt;span style=&quot;line-height: normal;&quot;&gt;get contains? keys vals&lt;/span&gt;&lt;/span&gt;&lt;/div&gt;&lt;div align=&quot;left&quot;&gt;&lt;span style=&quot;font-size:10px;font-weight:bold;text-decoration:none; line-height: 0;&quot;&gt;&lt;span style=&quot;text-decoration:none; line-height: normal;&quot;&gt;&amp;nbsp;&lt;/span&gt;&lt;/span&gt;&lt;/div&gt;&lt;div align=&quot;left&quot;&gt;&lt;span style=&quot;font-size:10px;font-weight:bold; line-height: 0;&quot;&gt;&lt;span style=&quot;line-height: normal;&quot;&gt;sequential? cons concat nth&amp;nbsp;&lt;/span&gt;&lt;/span&gt;&lt;span style=&quot;font-size:10px;font-weight:bold; line-height: 0;&quot;&gt;&lt;span style=&quot;line-height: normal;&quot;&gt;first rest empty? count apply&amp;nbsp;&lt;/span&gt;&lt;/span&gt;&lt;span style=&quot;font-size:10px;font-weight:bold; line-height: 0;&quot;&gt;&lt;span style=&quot;line-height: normal;&quot;&gt;map &lt;span style=&quot;line-height: normal;&quot;&gt;conj seq&lt;/span&gt;&lt;/span&gt;&lt;/span&gt;&lt;/div&gt;&lt;div align=&quot;left&quot;&gt;&lt;span style=&quot;font-size:10px;font-weight:bold;text-decoration:none; line-height: 0;&quot;&gt;&lt;span style=&quot;text-decoration:none; line-height: normal;&quot;&gt;&amp;nbsp;&lt;/span&gt;&lt;/span&gt;&lt;/div&gt;&lt;div align=&quot;left&quot;&gt;&lt;span style=&quot;font-size:10px;font-weight:bold; line-height: 0;&quot;&gt;&lt;span style=&quot;line-height: 0;&quot;&gt;&lt;span style=&quot;line-height: normal;&quot;&gt;with-meta meta&lt;/span&gt; atom atom?&amp;nbsp;&lt;/span&gt;&lt;/span&gt;&lt;span style=&quot;font-size:10px;font-weight:bold; line-height: 0;&quot;&gt;&lt;span style=&quot;line-height: normal;&quot;&gt;deref reset! swap!&lt;/span&gt;&lt;/span&gt;&lt;/div&gt;&lt;div align=&quot;left&quot;&gt;&lt;span style=&quot;font-size:10px;font-weight:bold; line-height: 0;&quot;&gt;&lt;span style=&quot;line-height: normal;&quot;&gt;&lt;br&gt;&lt;/span&gt;&lt;/span&gt;&lt;/div&gt;&lt;div align=&quot;left&quot;&gt;&lt;span style=&quot;font-size:10px;font-weight:bold; line-height: 0;&quot;&gt;&lt;span style=&quot;line-height: normal;&quot;&gt;&lt;font color=&quot;#ff0000&quot;&gt;defpackage, in-package, delete-package, find-package, symbol-name&lt;/font&gt;&lt;/span&gt;&lt;/span&gt;&lt;/div&gt;&lt;div align=&quot;left&quot;&gt;&lt;/div&gt;&lt;/div&gt;" style="text;html=1;nl2Br=0;html=1;nl2Br=0;verticalAlign=middle;align=left;spacingLeft=0.0;spacingRight=0;whiteSpace=wrap;gliffyId=207;" parent="1" vertex="1">
          <mxGeometry x="31.5" y="-3.5" width="225" height="154" as="geometry" />
        </mxCell>
        <mxCell id="c9HfcHfPdhRfk0jndsiD-67" style="shape=filledEdge;strokeWidth=2;strokeColor=#000000;fillColor=none;startArrow=none;startFill=0;startSize=6;endArrow=block;endFill=1;endSize=6;rounded=1;gliffyId=208;edgeStyle=orthogonalEdgeStyle;" parent="1" source="c9HfcHfPdhRfk0jndsiD-63" target="c9HfcHfPdhRfk0jndsiD-27" edge="1">
          <mxGeometry width="100" height="100" relative="1" as="geometry">
            <Array as="points">
              <mxPoint x="261.5" y="86.07864379882812" />
              <mxPoint x="276.5074768066406" y="86.07864379882812" />
              <mxPoint x="291.51495361328125" y="86.07864379882812" />
              <mxPoint x="306.5224304199219" y="86.07864379882812" />
            </Array>
          </mxGeometry>
        </mxCell>
        <mxCell id="c9HfcHfPdhRfk0jndsiD-68" value="&lt;div style=&quot;width: 97.0px;height:auto;word-break: break-word;&quot;&gt;&lt;div align=&quot;left&quot;&gt;&lt;span style=&quot;font-size: 10px; font-weight: bold; line-height: normal;&quot;&gt;*host-language*&lt;/span&gt;&lt;/div&gt;&lt;div align=&quot;left&quot;&gt;&lt;span style=&quot;font-size:10px;font-weight:bold; line-height: normal;&quot;&gt;not&lt;/span&gt;&lt;/div&gt;&lt;div align=&quot;left&quot;&gt;&lt;span style=&quot;font-size:10px;font-weight:bold; line-height: normal;&quot;&gt;load-file&lt;/span&gt;&lt;/div&gt;&lt;/div&gt;" style="text;html=1;nl2Br=0;html=1;nl2Br=0;verticalAlign=middle;align=left;spacingLeft=0.0;spacingRight=0;whiteSpace=wrap;gliffyId=211;" parent="1" vertex="1">
          <mxGeometry x="451.5" y="63.5" width="100" height="33" as="geometry" />
        </mxCell>
        <mxCell id="c9HfcHfPdhRfk0jndsiD-69" value="&lt;div style=&quot;width: 74.5px;height:auto;word-break: break-word;&quot;&gt;&lt;div align=&quot;left&quot;&gt;&lt;span style=&quot;font-size:10px;font-weight:bold; line-height: normal;&quot;&gt;cond&lt;/span&gt;&lt;/div&gt;&lt;div align=&quot;left&quot;&gt;&lt;span style=&quot;font-size: 10px; font-weight: bold; line-height: normal;&quot;&gt;gensym&lt;/span&gt;&lt;/div&gt;&lt;div align=&quot;left&quot;&gt;&lt;span style=&quot;font-size: 10px; font-weight: bold; line-height: normal;&quot;&gt;or&lt;/span&gt;&lt;/div&gt;&lt;/div&gt;" style="text;html=1;nl2Br=0;html=1;nl2Br=0;verticalAlign=middle;align=left;spacingLeft=0.0;spacingRight=0;whiteSpace=wrap;gliffyId=212;" parent="1" vertex="1">
          <mxGeometry x="561.5" y="63.5" width="77.5" height="33" as="geometry" />
        </mxCell>
        <mxCell id="4_vxQsadACFQhMmcrZ8h-4" value="Text" style="text;html=1;strokeColor=none;fillColor=none;align=center;verticalAlign=middle;whiteSpace=wrap;rounded=0;" parent="1" vertex="1">
          <mxGeometry x="700" y="310" width="60" height="30" as="geometry" />
        </mxCell>
        <mxCell id="4_vxQsadACFQhMmcrZ8h-5" value="Text" style="text;html=1;strokeColor=none;fillColor=none;align=center;verticalAlign=middle;whiteSpace=wrap;rounded=0;" parent="1" vertex="1">
          <mxGeometry x="700" y="310" width="60" height="30" as="geometry" />
        </mxCell>
        <mxCell id="4_vxQsadACFQhMmcrZ8h-6" value="" style="rounded=0;whiteSpace=wrap;html=1;" parent="1" vertex="1">
          <mxGeometry x="670" y="300" width="120" height="60" as="geometry" />
        </mxCell>
        <mxCell id="4_vxQsadACFQhMmcrZ8h-7" value="" style="rounded=0;whiteSpace=wrap;html=1;" parent="1" vertex="1">
          <mxGeometry x="670" y="300" width="120" height="60" as="geometry" />
        </mxCell>
      </root>
    </mxGraphModel>
  </diagram>
</mxfile>
